<svg width="10" height="7" viewBox="0 0 10 7" fill="none" xmlns="http://www.w3.org/2000/svg">
<path d="M7.34912 0.768478L7.45518 0.874544C7.62285 0.706884 7.80513 0.611817 7.98646 0.58188C8.16704 0.552067 8.35682 0.585083 8.54444 0.69051L8.54472 0.690668C8.98498 0.936795 9.10913 1.55065 8.79538 1.9437L8.79532 1.94366L8.79261 1.94728C8.76123 1.98912 8.7254 2.02873 8.68785 2.06628L6.48177 4.27236L4.27569 6.47843C4.13702 6.6171 3.99191 6.7041 3.84242 6.74263C3.69394 6.78091 3.53136 6.77396 3.35204 6.7094L3.30123 6.85054M7.34912 0.768478L7.45537 0.874363C6.85568 1.47609 6.25499 2.07678 5.65441 2.67737L5.6543 2.67747L5.65409 2.67768C5.05352 3.27826 4.45304 3.87873 3.85361 4.48022L3.8472 4.48665L3.84701 4.48644C3.83868 4.49385 3.8369 4.49591 3.8307 4.5031C3.82935 4.50466 3.8278 4.50647 3.82592 4.50862C3.8113 4.52538 3.79376 4.54371 3.75875 4.57434C3.69932 4.62634 3.60975 4.62336 3.55391 4.56752C3.38619 4.3998 3.22869 4.25277 3.07415 4.10933C3.06168 4.09776 3.04923 4.08621 3.03679 4.07467C2.89547 3.94357 2.7557 3.81391 2.6147 3.67481L2.61397 3.67409C2.55013 3.61025 2.48776 3.54658 2.42598 3.4835C2.2444 3.29813 2.0679 3.11795 1.87415 2.954L1.97104 2.83949M7.34912 0.768478C6.74951 1.37013 6.14889 1.97076 5.54826 2.57138C4.94762 3.17202 4.34698 3.77267 3.74736 4.37433C3.7465 4.37509 3.74566 4.37584 3.74485 4.37657L3.72258 4.39885C3.72057 4.40111 3.71867 4.40332 3.71672 4.40558C3.70646 4.41749 3.69492 4.43087 3.65997 4.46145C3.47649 4.27797 3.30536 4.11922 3.13905 3.96493C2.99744 3.83356 2.85933 3.70543 2.72004 3.56803M7.34912 0.768478C7.72157 0.396023 8.18816 0.318258 8.61792 0.559739L2.72004 3.56803M1.97104 2.83949L1.87428 2.95411C1.60802 2.72934 1.30409 2.69951 0.980922 2.85557C0.432282 3.12683 0.323796 3.80108 0.77629 4.26081C1.5124 5.0051 2.2525 5.74519 3.00068 6.48112C3.10375 6.58039 3.22929 6.66508 3.35218 6.70945L3.30123 6.85054M1.97104 2.83949C2.17064 3.00838 2.35411 3.1957 2.53701 3.38244C2.59789 3.4446 2.65871 3.5067 2.72004 3.56803M1.97104 2.83949L2.72004 3.56803M3.30123 6.85054C3.71052 6.99788 4.07479 6.89147 4.38176 6.5845L8.79392 2.17235C8.83484 2.13142 8.87577 2.08639 8.91261 2.03728L0.915067 2.72079C0.268388 3.04004 0.149694 3.83816 0.669493 4.36614C1.40622 5.11105 2.14703 5.85187 2.89604 6.58859C3.01064 6.6991 3.15389 6.79733 3.30123 6.85054Z" fill="#423C3C" stroke="#EAEAEA" stroke-width="0.300001" stroke-linejoin="round"/>
</svg>
