<svg width="29" height="24" viewBox="0 0 29 24" fill="none" xmlns="http://www.w3.org/2000/svg">
<path d="M26.5471 12.3147L26.5477 12.3138C27.3721 10.9099 27.9164 8.95325 27.6749 7.40568C26.9491 2.77679 21.8665 0.0746475 17.5845 2.07804L17.5833 2.07858C16.6922 2.49275 15.906 3.05265 15.1492 3.78318C14.7683 4.15086 14.22 4.07475 13.8966 3.78519L14.2302 3.41268L13.8818 3.77137C12.0188 1.96205 9.96219 1.16353 7.3604 1.56215C4.46082 2.01282 2.33209 3.872 1.59156 6.6744L1.59153 6.67452C1.12723 8.42976 1.59216 10.7254 2.61196 12.3385C3.13337 13.1623 3.27821 13.3786 3.87835 14.1268L3.87878 14.1273C5.87794 16.6267 8.22787 18.7908 10.7466 20.8046L10.7479 20.8056C11.7648 21.6242 12.7675 22.3947 13.8886 22.9896L26.5471 12.3147ZM26.5471 12.3147C25.673 13.8108 24.8941 14.6389 23.6782 15.9315L23.6281 15.9849L26.5471 12.3147ZM15.1933 23.002C15.2181 22.988 15.2429 22.9741 15.2676 22.9603C15.6744 22.7324 16.0585 22.5172 16.4148 22.265L16.4169 22.2635C19.0385 20.4279 21.432 18.3153 23.6277 15.9852L15.1933 23.002ZM15.1933 23.002C14.7619 23.2385 14.3503 23.2341 13.8889 22.9898L15.1933 23.002Z" fill="#EBEBEB" fill-opacity="0.39" stroke="#474244"/>
</svg>
