<svg width="29" height="23" viewBox="0 0 29 23" fill="none" xmlns="http://www.w3.org/2000/svg">
<path d="M26.5471 11.5343L26.5477 11.5333C27.3721 10.1295 27.9164 8.17279 27.6749 6.62522C26.9491 1.99633 21.8665 -0.705809 17.5845 1.29758L17.5833 1.29812C16.6922 1.71229 15.906 2.27219 15.1492 3.00272C14.7683 3.3704 14.22 3.29429 13.8966 3.00473L14.2302 2.63223L13.8818 2.99091C12.0188 1.18159 9.96219 0.383075 7.3604 0.781696C4.46082 1.23237 2.33209 3.09155 1.59156 5.89394L1.59153 5.89407C1.12723 7.64931 1.59216 9.94499 2.61196 11.558C3.13337 12.3819 3.27821 12.5981 3.87835 13.3463L3.87878 13.3469C5.87794 15.8463 8.22787 18.0103 10.7466 20.0241L10.7479 20.0252C11.7648 20.8438 12.7675 21.6142 13.8886 22.2092L26.5471 11.5343ZM26.5471 11.5343C25.673 13.0303 24.8941 13.8584 23.6782 15.1511L23.6281 15.2044L26.5471 11.5343ZM15.1933 22.2215C15.2181 22.2076 15.2429 22.1937 15.2676 22.1798C15.6744 21.952 16.0585 21.7367 16.4148 21.4845L16.4169 21.4831C19.0385 19.6474 21.432 17.5348 23.6277 15.2048L15.1933 22.2215ZM15.1933 22.2215C14.7619 22.4581 14.3503 22.4536 13.8889 22.2093L15.1933 22.2215Z" fill="#EBEBEB" fill-opacity="0.39" stroke="#474244"/>
</svg>
